# xmcd CD database file
# Copyright (C) 1996 Ti Kan
#
# Track frame offsets:
# 	150
# 	12883
# 	27395
# 	44320
# 	64230
# 	74150
# 	90305
# 	101815
# 	113135
# 	127158
#
# Disc length: 1870 seconds
#
# Revision: 1
# Processed by: cddbd v1.4b41PL1 Copyright (c) Steve Scherf et al.
# Submitted via: DiscPlay 3.4.1
#
DISCID=8d074c0a
DTITLE=George Strait - Livin' It Up
DYEAR=1900
DGENRE=
TTITLE0=Some Had To Teach You
TTITLE1=Heaven Must Be Wondering Where You Are
TTITLE2=I've Come To Expect It From You
TTITLE3=Lonesome Rodeo Cowboy
TTITLE4=When You're A Man On Your Own
TTITLE5=Drinking Champagne
TTITLE6=We're Supposed To Do That Now And Then
TTITLE7=She Loves Me (She Don't Love You)
TTITLE8=Love Without End, Amen
TTITLE9=Stranger In My Arms
EXTD=
EXTT0=
EXTT1=
EXTT2=
EXTT3=
EXTT4=
EXTT5=
EXTT6=
EXTT7=
EXTT8=
EXTT9=
PLAYORDER=
